<?xml version="1.0" encoding="UTF-8"?>
<svg width="26px" height="21px" viewBox="0 0 26 21" version="1.1" xmlns="http://www.w3.org/2000/svg" xmlns:xlink="http://www.w3.org/1999/xlink">
    <!-- Generator: Sketch 51.3 (57544) - http://www.bohemiancoding.com/sketch -->
    <title>Linked Accts</title>
    <desc>Created with Sketch.</desc>
    <defs></defs>
    <g id="Page-1" stroke="none" stroke-width="1" fill="none" fill-rule="evenodd">
        <g id="Nav-Bar" transform="translate(-183.000000, -70.000000)" fill="#28397F">
            <g id="Nav" transform="translate(0.000000, 62.000000)">
                <path d="M202.256641,24.9289956 C202.256641,24.188236 202.256641,23.5508011 202.255723,22.9133663 C202.255723,21.3690573 202.266738,19.8263379 202.247461,18.2836185 C202.240118,17.6167758 202.024401,17.0349775 201.173466,17.0500788 C200.372101,17.0635905 200.203199,17.6191603 200.196773,18.2542107 C200.190348,18.8964143 200.193101,19.5402076 200.192183,20.1824112 L200.192183,24.9289956 L202.256641,24.9289956 Z M197.003244,24.9297904 C197.003244,22.6192879 197.016095,20.4311856 196.9959,18.2430834 C196.990393,17.566703 196.717763,17.0095437 195.874172,17.0516684 C195.069135,17.0922036 194.938787,17.6565162 194.941541,18.2899769 C194.947048,19.4170126 194.942459,20.5440482 194.942459,21.6710838 C194.941541,22.7520206 194.942459,23.8313678 194.942459,24.9297904 L197.003244,24.9297904 Z M191.73516,24.9329696 C191.73516,22.6041866 191.757191,20.3238868 191.720473,18.0443817 C191.711294,17.4315859 191.325757,17.00398 190.60976,17.049284 C189.945168,17.0914087 189.682636,17.5015289 189.682636,18.1000182 C189.681718,19.4225762 189.679882,20.7451342 189.678965,22.0676922 C189.678047,23.0198704 189.678965,23.9712538 189.678965,24.9329696 L191.73516,24.9329696 Z M184.171297,27.8403718 L207.924948,27.8403718 C207.452207,25.982909 207.452207,25.982909 205.664051,25.982909 L186.173334,25.982909 C184.62109,25.982909 184.379671,26.2054548 184.171297,27.8403718 Z M184.832217,13.7635539 C184.84874,13.8327021 184.866181,13.9018503 184.882704,13.9717932 C188.166192,13.9717932 191.450597,13.9709984 194.733167,13.9717932 C195.376646,13.9717932 196.023797,13.9415906 196.661769,13.9988167 C196.862799,14.0170972 197.039962,14.2769989 197.229058,14.4264226 C197.037208,14.6036644 196.876568,14.8492596 196.647082,14.9390728 C196.413924,15.0296807 196.113756,14.9692754 195.842962,14.9692754 C193.099226,14.9700702 190.35549,14.9676858 187.612671,14.9716598 C187.253755,14.9724546 186.896675,15.0010677 186.53684,15.0169638 L186.53684,24.9123047 L188.539795,24.9123047 C188.539795,22.7798388 188.518683,20.7157264 188.552647,18.6532035 C188.561826,18.1182987 188.626082,17.5325264 188.867502,17.0643853 C189.290674,16.2433502 190.060829,15.8626379 191.049456,16.0446486 C192.082143,16.2354021 192.732966,16.8887331 192.756833,17.9188023 C192.808237,20.0170915 192.80273,22.117765 192.783453,24.216849 C192.776109,24.9496606 193.051493,25.1364401 193.802371,24.8423617 C193.802371,22.7726856 193.792274,20.7085731 193.811551,18.6452554 C193.815223,18.199369 193.862956,17.7359968 193.998812,17.312365 C194.281538,16.4301297 195.297703,15.8666119 196.218401,16.0144459 C197.314427,16.190893 198.015737,16.9165513 198.030424,18.0221272 C198.05888,20.3079906 198.038685,22.5938541 198.038685,24.9186631 L199.074127,24.9186631 C199.074127,23.7685781 199.073209,22.6757192 199.075045,21.5836551 C199.075963,20.3882661 199.031901,19.1904927 199.097993,17.998283 C199.16225,16.8076628 200.145368,15.9349653 201.249656,15.9683472 C202.40443,16.0033187 203.249857,16.8648889 203.313195,18.0888909 C203.331554,18.4433746 203.317785,18.7986531 203.317785,19.1539316 C203.318703,21.0503399 203.318703,22.9459534 203.318703,24.878128 L205.377652,24.878128 C205.377652,21.7457956 205.377652,18.6810217 205.37857,15.6154531 C205.37857,14.0170972 205.37857,14.0170972 207.005168,13.9590763 C207.048311,13.9574867 207.089619,13.8962866 207.213541,13.7977306 C203.658342,12.2081176 200.156384,10.6256579 196.632394,9.08929693 C196.278986,8.93589928 195.726383,8.9263616 195.375728,9.07975926 C191.848067,10.612941 188.343355,12.1954007 184.832217,13.7635539 Z M183,27.149685 C183.170738,26.8444793 183.385537,26.5535801 183.502116,26.2308887 C183.79953,25.4066743 184.319086,24.8995878 185.362789,24.9711204 L185.362789,15.0710106 C184.972663,15.0384236 184.566931,15.0924704 184.25483,14.9557637 C183.89316,14.798392 183.427762,14.5138513 183.348819,14.2062612 C183.270794,13.8994659 183.605843,13.4893457 183.781171,13.134862 C183.816053,13.0633294 183.946401,13.0291527 184.037277,12.9886176 C187.644799,11.3680072 191.228455,9.69414468 194.88371,8.17606427 C195.582266,7.8859599 196.663605,7.97736264 197.387863,8.28256834 C200.81914,9.72752655 204.18616,11.3099863 207.578883,12.8376044 C208.189316,13.1126074 208.760278,13.4106599 208.597802,14.1895702 C208.439915,14.9446364 207.809287,14.9716598 207.174988,14.9732494 C207.010675,14.9732494 206.845445,14.9947092 206.593011,15.0121949 L206.593011,24.8749488 C208.241639,24.8034162 208.475715,26.1045144 208.892462,27.2045266 C209.231183,28.1034528 208.748344,28.7917552 207.745031,28.9499217 C207.479745,28.9912516 207.207116,28.9928412 206.936322,28.9928412 C199.652432,28.9952257 192.36946,28.9912516 185.08557,28.9999945 C184.239225,29.0007893 183.461726,28.9165398 183,28.1193489 L183,27.149685 Z" id="Linked-Accts"></path>
            </g>
        </g>
    </g>
</svg>