<?xml version="1.0" encoding="UTF-8"?>
<svg width="25px" height="22px" viewBox="0 0 25 22" version="1.1" xmlns="http://www.w3.org/2000/svg" xmlns:xlink="http://www.w3.org/1999/xlink">
    <!-- Generator: Sketch 51.3 (57544) - http://www.bohemiancoding.com/sketch -->
    <title>Calculator</title>
    <desc>Created with Sketch.</desc>
    <defs></defs>
    <g id="Page-1" stroke="none" stroke-width="1" fill="none" fill-rule="evenodd">
        <g id="Nav-Bar" transform="translate(-260.000000, -71.000000)">
            <g id="Nav" transform="translate(0.000000, 62.000000)">
                <g id="Calculator" transform="translate(261.000000, 10.000000)">
                    <path d="M0.851368,19.83744 L21.843008,19.83744 L21.843008,0.05584 C21.871528,0.17264 21.922128,0.28784 21.922128,0.40384 C21.925808,6.90784 21.925808,13.41104 21.925808,19.9143053 C15.023968,19.91424 8.122128,19.91504 1.220288,19.91104 C1.097928,19.91104 0.974648,19.86304 0.851368,19.83744" id="Fill-1" fill="#FEFEFE"></path>
                    <path d="M17.280176,4.83664 C17.949936,4.83664 18.617856,4.83984 19.287616,4.83504 C19.545216,4.83344 19.777056,4.88304 19.780736,5.16864 C19.784416,5.45344 19.548896,5.51824 19.294976,5.51824 C17.943496,5.51984 16.592016,5.51984 15.239616,5.51824 C14.991216,5.51744 14.750176,5.46464 14.747416,5.17584 C14.744656,4.88624 14.973736,4.83424 15.232256,4.83584 C15.914896,4.83904 16.597536,4.83664 17.280176,4.83664" id="Fill-3" fill="#263A7F"></path>
                    <path d="M5.9248,4.83664 C5.9248,4.29424 5.92848,3.79584 5.92296,3.29824 C5.9202,3.04704 5.95148,2.79824 6.28452,2.80144 C6.61112,2.80384 6.64884,3.05664 6.64884,3.30464 L6.64884,4.83664 C7.23212,4.83664 7.76204,4.83984 8.29104,4.83584 C8.54312,4.83344 8.786,4.86624 8.7952,5.15664 C8.80624,5.47344 8.54588,5.51664 8.28276,5.51824 C7.75376,5.51984 7.22476,5.51904 6.64884,5.51904 C6.64884,6.03504 6.65252,6.50784 6.64608,6.98064 C6.64424,7.10704 6.65252,7.26064 6.5826,7.35184 C6.509,7.44784 6.30752,7.56144 6.233,7.52784 C6.10236,7.46944 5.9478,7.30784 5.94044,7.18224 C5.90824,6.64624 5.92664,6.10784 5.92664,5.51984 C5.4234,5.51984 4.9634,5.51984 4.5034,5.51904 C4.36724,5.51824 4.20808,5.55264 4.10044,5.49824 C3.96336,5.42944 3.76096,5.26384 3.78028,5.18144 C3.81156,5.05024 3.99372,4.86864 4.12896,4.85504 C4.56136,4.81264 5.00112,4.83744 5.43904,4.83664 L5.9248,4.83664 Z" id="Fill-5" fill="#263A7F"></path>
                    <path d="M17.259476,14.04056 C16.589716,14.04056 15.920876,14.03896 15.251116,14.04136 C14.998116,14.04216 14.757076,14.00216 14.748796,13.71416 C14.739596,13.40296 14.987996,13.35176 15.258476,13.35256 C16.597076,13.35336 17.935676,13.35416 19.274276,13.35096 C19.532796,13.35096 19.770156,13.40696 19.778436,13.68296 C19.789476,13.98776 19.541076,14.04376 19.267836,14.04216 C18.598076,14.03736 17.929236,14.04056 17.259476,14.04056" id="Fill-7" fill="#263A7F"></path>
                    <path d="M17.238868,16.0804 L15.274668,16.0804 C15.016148,16.0796 14.744748,16.0596 14.749348,15.7388 C14.754868,15.418 15.029028,15.41 15.285708,15.41 C16.607748,15.41 17.931628,15.4108 19.253668,15.4092 C19.515868,15.4092 19.783588,15.43 19.778988,15.7492 C19.774388,16.0668 19.501148,16.0804 19.243548,16.0804 L17.238868,16.0804 Z" id="Fill-9" fill="#263A7F"></path>
                    <path d="M6.274308,14.26632 C6.790428,13.77192 7.249508,13.33192 7.708588,12.89192 C7.894428,12.71432 8.106948,12.56552 8.337868,12.79192 C8.569708,13.01912 8.396748,13.21432 8.210908,13.38632 C7.746308,13.81912 7.281708,14.25272 6.778468,14.72152 C7.284468,15.19432 7.780348,15.63352 8.239428,16.10472 C8.349828,16.21752 8.432628,16.48552 8.365468,16.59672 C8.207228,16.86312 7.958828,16.78152 7.757348,16.58952 C7.277108,16.13432 6.798708,15.67672 6.281668,15.18312 C5.779348,15.66232 5.313828,16.13192 4.815188,16.56632 C4.694668,16.67112 4.411308,16.74712 4.291708,16.68392 C4.007428,16.53592 4.092988,16.29992 4.297228,16.11112 C4.782068,15.65992 5.270588,15.21272 5.793148,14.73112 C5.274268,14.24632 4.784828,13.80472 4.321148,13.34072 C4.215348,13.23592 4.131628,13.04312 4.154628,12.90712 C4.198788,12.64472 4.547468,12.61512 4.801388,12.85112 C5.285308,13.30312 5.756348,13.76712 6.274308,14.26632" id="Fill-11" fill="#263A7F"></path>
                    <path d="M20.361808,19.50616 L2.961848,19.50616 C1.631528,19.50616 0.552368,18.56776 0.552368,17.41096 L0.552368,2.57496 C0.552368,1.41816 1.631528,0.48056 2.961848,0.48056 L20.361808,0.48056 C21.692128,0.48056 22.771288,1.41816 22.771288,2.57496 L22.771288,17.41096 C22.771288,18.56776 21.692128,19.50616 20.361808,19.50616 Z" id="Stroke-13" stroke="#263A7F" stroke-width="1.2"></path>
                    <path d="M11.38822,0.4804 L11.38822,19.506" id="Stroke-15" stroke="#263A7F"></path>
                    <path d="M0.552184,9.71472 L22.771104,9.71472" id="Stroke-17" stroke="#263A7F"></path>
                </g>
            </g>
        </g>
    </g>
</svg>