<?xml version="1.0" encoding="UTF-8"?>
<svg width="17px" height="15px" viewBox="0 0 17 15" version="1.1" xmlns="http://www.w3.org/2000/svg" xmlns:xlink="http://www.w3.org/1999/xlink">
    <!-- Generator: Sketch 51.3 (57544) - http://www.bohemiancoding.com/sketch -->
    <title>Food</title>
    <desc>Created with Sketch.</desc>
    <defs></defs>
    <g id="Page-1" stroke="none" stroke-width="1" fill="none" fill-rule="evenodd">
        <g id="Mobile-Copy-42" transform="translate(-37.000000, -598.000000)" fill="#263A7F">
            <g id="Group-2" transform="translate(20.000000, 548.000000)">
                <path d="M25.28,60.1082581 C22.8923,60.1082581 20.5037,60.1082581 18.116,60.1082581 C18.0566,60.1082581 17.9963,60.1054456 17.9387,60.1148206 C17.7695,60.1401331 17.6489,60.2807581 17.6489,60.4448206 C17.6489,60.6098206 17.7695,60.7504456 17.9387,60.7766956 C17.9864,60.7841956 18.035,60.7823206 18.0836,60.7823206 C22.8815,60.7823206 27.6785,60.7823206 32.4764,60.7813831 C32.5403,60.7813831 32.6069,60.7795081 32.669,60.7645081 C32.813,60.7270081 32.9111,60.5929456 32.9111,60.4457581 C32.9111,60.2985706 32.813,60.1626331 32.6681,60.1270081 C32.5961,60.1091956 32.5187,60.1091956 32.444,60.1091956 C30.0563,60.1082581 27.6677,60.1082581 25.28,60.1082581 Z M18.9458,59.4238831 L31.6088,59.4238831 L31.6088,58.7395081 C31.1687,58.8688831 30.7502,58.8388831 30.3596,58.6176331 C30.1679,58.5079456 29.9951,58.3588831 29.8196,58.2210706 C29.4173,57.9070081 28.9349,57.9060706 28.5335,58.2238831 C28.4309,58.3063831 28.3319,58.3935706 28.2257,58.4704456 C27.7874,58.7910706 27.3113,58.8932581 26.7875,58.7451331 C26.4599,58.6532581 26.2052,58.4395081 25.9451,58.2304456 C25.5401,57.9023206 25.055,57.9032581 24.6482,58.2276331 C24.542,58.3129456 24.4385,58.4048206 24.3278,58.4845081 C23.8967,58.7910706 23.4278,58.8904456 22.9166,58.7498206 C22.5836,58.6579456 22.3244,58.4395081 22.0598,58.2266956 C21.7511,57.9791956 21.4046,57.9041956 21.0428,58.0654456 C20.8772,58.1385706 20.7395,58.2763831 20.5829,58.3738831 C20.3867,58.4966956 20.1923,58.6316956 19.9799,58.7216956 C19.646,58.8632581 19.2968,58.8388831 18.9458,58.7263831 L18.9458,59.4238831 Z M31.6196,56.7491956 L18.9404,56.7491956 C18.9404,57.1401331 18.9368,57.5216956 18.9449,57.9013831 C18.9458,57.9473206 18.9953,58.0101331 19.0376,58.0316956 C19.349,58.1938831 19.6649,58.1873206 19.9646,58.0045081 C20.1248,57.9060706 20.267,57.7720081 20.4209,57.6595081 C20.8592,57.3379456 21.3353,57.2329456 21.86,57.3801331 C22.1705,57.4682581 22.418,57.6613831 22.6646,57.8629456 C23.1245,58.2398206 23.5862,58.2370081 24.0506,57.8610706 C24.1433,57.7851331 24.2342,57.7045081 24.3323,57.6360706 C24.7625,57.3379456 25.2242,57.2376331 25.7318,57.3773206 C26.0711,57.4710706 26.3321,57.6932581 26.6021,57.9079456 C26.9936,58.2210706 27.4778,58.2191956 27.8729,57.9088831 C27.9845,57.8207581 28.0907,57.7251331 28.2059,57.6435706 C28.6379,57.3360706 29.1059,57.2357581 29.618,57.3791956 C29.9402,57.4691956 30.1949,57.6716956 30.4487,57.8816956 C30.7736,58.1507581 31.1327,58.2257581 31.5215,58.0485706 C31.5629,58.0288831 31.6142,57.9651331 31.6151,57.9210706 C31.6232,57.5348206 31.6196,57.1485706 31.6196,56.7491956 Z M25.2782,61.4554456 L18.8756,61.4554456 C18.8162,61.4563831 18.7568,61.4526331 18.6983,61.4591956 C18.4742,61.4882581 18.3365,61.7038831 18.431,61.9110706 C18.5408,62.1529456 18.6551,62.4004456 18.8135,62.6076331 C19.2734,63.2066956 19.8953,63.4757581 20.6252,63.4776331 C21.6926,63.4795081 22.7591,63.4776331 23.8265,63.4776331 C25.8587,63.4776331 27.8891,63.4795081 29.9213,63.4776331 C30.9482,63.4766956 31.7483,62.9151331 32.1209,61.9410706 C32.2163,61.6898206 32.0858,61.4732581 31.8257,61.4563831 C31.778,61.4545081 31.7294,61.4554456 31.6808,61.4554456 L25.2782,61.4554456 Z M25.2791,56.0657581 L31.7465,56.0657581 C31.7996,56.0657581 31.8545,56.0695081 31.9076,56.0638831 C32.1191,56.0404456 32.246,55.8735706 32.2181,55.6541956 C32.1038,54.7795081 31.8284,53.9610706 31.3451,53.2363831 C30.2237,51.5545081 28.6694,50.7004456 26.7029,50.6760706 C25.7543,50.6648206 24.8057,50.6591956 23.858,50.6807581 C23.4287,50.6910706 22.9922,50.7266956 22.5773,50.8279456 C20.2886,51.3866956 18.6875,53.2251331 18.341,55.6541956 C18.3131,55.8501331 18.4157,56.0104456 18.6029,56.0516956 C18.665,56.0657581 18.7316,56.0648206 18.7964,56.0648206 C20.9564,56.0657581 23.1182,56.0657581 25.2791,56.0657581 Z M17,57.5479456 C17.1026,57.3510706 17.2646,57.2760706 17.4707,57.3154456 C17.7389,57.3679456 18.0053,57.4298206 18.2924,57.4916956 C18.2924,57.2432581 18.296,56.9779456 18.2879,56.7126331 C18.287,56.6779456 18.2348,56.6366956 18.197,56.6132581 C17.8154,56.3779456 17.639,56.0057581 17.7056,55.5501331 C18.0341,53.3282581 19.1663,51.7016956 21.0734,50.6685706 C21.8627,50.2410706 22.7159,50.0188831 23.6069,50.0113831 C24.8192,50.0001331 26.0333,49.9841956 27.2447,50.0366956 C28.4426,50.0882581 29.5199,50.5513831 30.4739,51.3051331 C31.4819,52.1001331 32.1974,53.1229456 32.588,54.3745081 C32.7176,54.7879456 32.8049,55.2210706 32.8616,55.6523206 C32.9138,56.0657581 32.723,56.3920081 32.3738,56.6010706 C32.291,56.6516956 32.2622,56.7023206 32.2649,56.7979456 C32.2703,57.0388831 32.2667,57.2798206 32.2667,57.5160706 C32.5088,57.4532581 32.7419,57.3904456 32.9759,57.3341956 C33.0434,57.3173206 33.1145,57.3145081 33.1847,57.3126331 C33.3971,57.3079456 33.5447,57.4335706 33.5564,57.6248206 C33.569,57.8132581 33.4358,57.9473206 33.2243,57.9857581 C33.0191,58.0232581 32.8139,58.0720081 32.6132,58.1329456 C32.5187,58.1620081 32.4287,58.2257581 32.3486,58.2885706 C32.309,58.3195081 32.2712,58.3841956 32.2703,58.4348206 C32.2631,58.7601331 32.2667,59.0854456 32.2667,59.4351331 C32.363,59.4351331 32.4521,59.4341956 32.5412,59.4351331 C33.0839,59.4416956 33.4817,59.7941956 33.5501,60.3276331 C33.6158,60.8310706 33.3143,61.2735706 32.7995,61.4291956 C32.7896,61.4320081 32.7815,61.4395081 32.7896,61.4357581 C32.8643,62.4248206 32.3423,63.0688831 31.6592,63.6051331 C31.1768,63.9838831 30.6116,64.1498206 30.0077,64.1507581 C26.8541,64.1516956 23.7005,64.1554456 20.5469,64.1488831 C19.3193,64.1470081 18.2555,63.3623206 17.8325,62.1782581 C17.7398,61.9204456 17.7362,61.8379456 17.7965,61.4432581 C17.5346,61.3757581 17.306,61.2426331 17.162,60.9951331 C17.0945,60.8760706 17.0531,60.7410706 17,60.6135706 L17,60.2770081 C17.0108,60.2516956 17.0225,60.2263831 17.0315,60.2001331 C17.1854,59.6976331 17.5193,59.4398206 18.0251,59.4351331 C18.1097,59.4341956 18.1943,59.4351331 18.2933,59.4351331 C18.2933,59.0938831 18.3005,58.7704456 18.2879,58.4479456 C18.2861,58.3738831 18.2366,58.2745081 18.1781,58.2351331 C17.9441,58.0776331 17.6795,58.0007581 17.4014,57.9885706 C17.2106,57.9810706 17.0711,57.9079456 17,57.7166956 L17,57.5479456 Z" id="Food"></path>
            </g>
        </g>
    </g>
</svg>