<?xml version="1.0" encoding="UTF-8"?>
<svg width="18px" height="16px" viewBox="0 0 18 16" version="1.1" xmlns="http://www.w3.org/2000/svg" xmlns:xlink="http://www.w3.org/1999/xlink">
    <!-- Generator: Sketch 51.3 (57544) - http://www.bohemiancoding.com/sketch -->
    <title>Gas</title>
    <desc>Created with Sketch.</desc>
    <defs></defs>
    <g id="Page-1" stroke="none" stroke-width="1" fill="none" fill-rule="evenodd">
        <g id="Mobile-Copy-42" transform="translate(-37.000000, -639.000000)" fill="#263A7F">
            <g id="Group-2" transform="translate(20.000000, 548.000000)">
                <g id="Gas" transform="translate(17.000000, 91.000000)">
                    <path d="M12.878064,14.6652632 C12.878064,14.4724211 12.873024,14.2913684 12.880224,14.1111579 C12.883824,14.0252632 12.855744,13.9747368 12.757824,13.9385263 C12.585744,13.8745263 12.424464,13.7869474 12.250944,13.7271579 C11.879424,13.6 11.740464,13.3785263 11.741904,13.0341053 C11.751264,9.41473684 11.747664,5.79621053 11.747664,2.17684211 C11.747664,1.49894737 11.301984,1.11831579 10.510704,1.11831579 L3.991824,1.11831579 C3.162384,1.11831579 2.701584,1.51242105 2.701584,2.22231579 C2.701584,5.85094737 2.700144,9.48042105 2.704464,13.1090526 C2.704464,13.3827368 2.584944,13.5713684 2.292624,13.6842105 C2.083824,13.7650526 1.880784,13.8568421 1.677024,13.9477895 C1.635984,13.9671579 1.578384,14.0050526 1.576944,14.0353684 C1.567584,14.2442105 1.571904,14.4538947 1.571904,14.6652632 L12.878064,14.6652632 Z M0.899424,15.6362105 C0.555984,15.5174737 0.419184,15.3035789 0.435744,14.9852632 C0.456624,14.5776842 0.444384,14.1692632 0.439344,13.7608421 C0.436464,13.5115789 0.559584,13.3372632 0.820944,13.2303158 C1.016784,13.1494737 1.205424,13.0543158 1.406304,12.9844211 C1.546704,12.9355789 1.574784,12.8623158 1.574064,12.7435789 C1.570464,10.6618947 1.571184,8.58021053 1.571184,6.49852632 C1.571184,5.05684211 1.571184,3.61515789 1.571904,2.17431579 C1.571904,0.998736842 2.556144,0.152421053 3.927744,0.150736842 C6.142464,0.149052632 8.356464,0.149052632 10.570464,0.150736842 C11.908944,0.152421053 12.873744,0.978526316 12.877344,2.12547368 C12.880224,3.04757895 12.880224,3.96968421 12.875184,4.89263158 C12.874464,4.99452632 12.903264,5.04 13.024224,5.06947368 C14.109984,5.34147368 15.169824,6.304 15.144624,7.51410526 C15.119424,8.74863158 15.141024,9.984 15.138864,11.2185263 C15.138144,11.4475789 15.236064,11.6218947 15.485904,11.7162105 C15.833664,11.8475789 16.227504,11.6437895 16.266384,11.3178947 C16.272144,11.2724211 16.269984,11.2269474 16.269984,11.1814737 C16.269984,9.29684211 16.269264,7.41136842 16.273584,5.52589474 C16.273584,5.41557895 16.231104,5.36336842 16.118784,5.30778947 C15.571584,5.04 15.219504,4.65178947 15.165504,4.09684211 C15.158304,4.01852632 15.174144,3.93852632 15.181344,3.83831579 C14.928624,3.72968421 14.656464,3.61263158 14.384304,3.49557895 C14.199264,3.41642105 14.070384,3.29768421 14.043024,3.11747368 C13.984704,2.73515789 14.404464,2.45978947 14.824224,2.60715789 C14.932944,2.64505263 15.035184,2.69557895 15.141024,2.74021053 C15.766704,3.008 16.390224,3.27915789 17.018064,3.54273684 C17.278704,3.65305263 17.401824,3.82231579 17.401824,4.07157895 C17.399664,6.45557895 17.402544,8.84042105 17.398944,11.2244211 C17.398224,11.9461053 16.912944,12.4833684 16.102944,12.6787368 C15.191424,12.8993684 14.150304,12.3082105 14.040144,11.5056842 C14.021424,11.3658947 14.009904,11.2244211 14.009904,11.0837895 C14.007744,9.87957895 14.011344,8.67452632 14.007744,7.47031579 C14.004864,6.83115789 13.622544,6.38989474 12.991104,6.08673684 C12.961584,6.07326316 12.928464,6.06484211 12.878064,6.04715789 L12.878064,6.20884211 C12.878064,8.39157895 12.879504,10.5743158 12.874464,12.7562105 C12.873744,12.8749474 12.912624,12.9364211 13.040784,12.9827368 C13.235184,13.0526316 13.418784,13.1452632 13.611024,13.2218947 C13.885344,13.3322105 14.014944,13.5107368 14.010624,13.7726316 C14.002704,14.2012632 14.001264,14.6298947 14.011344,15.0585263 C14.017824,15.3381053 13.893984,15.5343158 13.584384,15.6362105 L0.899424,15.6362105 Z" id="Fill-29"></path>
                    <path d="M5.184,8.544 L8.92512,8.544 L8.92512,5.65894737 L5.184,5.65894737 L5.184,8.544 Z M7.05672,4.68378947 C7.8156,4.68378947 8.57376,4.68294737 9.33192,4.68378947 C9.69264,4.68463158 9.87624,4.87073684 9.87624,5.23957895 C9.87696,6.48421053 9.87696,7.72968421 9.87624,8.97431579 C9.87624,9.33305263 9.69048,9.52252632 9.34056,9.52252632 C7.81848,9.52336842 6.29712,9.52336842 4.77432,9.52252632 C4.42368,9.52252632 4.23792,9.33305263 4.23792,8.97431579 C4.2372,7.72463158 4.2372,6.47494737 4.23792,5.22526316 C4.23792,4.87578947 4.42584,4.68463158 4.76712,4.68378947 C5.5296,4.68294737 6.29352,4.68378947 7.05672,4.68378947 Z" id="Fill-31"></path>
                </g>
            </g>
        </g>
    </g>
</svg>