<?xml version="1.0" encoding="utf-8"?>
<!-- Generator: Adobe Illustrator 22.1.0, SVG Export Plug-In . SVG Version: 6.00 Build 0)  -->
<svg version="1.1" id="Layer_1" xmlns="http://www.w3.org/2000/svg" xmlns:xlink="http://www.w3.org/1999/xlink" x="0px" y="0px"
	 viewBox="0 0 256 141" style="enable-background:new 0 0 256 141;" xml:space="preserve">
<style type="text/css">
	.st0{clip-path:url(#SVGID_2_);}
	.st1{clip-path:url(#SVGID_4_);fill:#ED3C95;}
	.st2{clip-path:url(#SVGID_6_);}
	.st3{clip-path:url(#SVGID_8_);fill:#ED3C95;}
	.st4{clip-path:url(#SVGID_10_);}
	.st5{clip-path:url(#SVGID_12_);fill:#ED3C95;}
	.st6{fill:#243672;}
</style>
<g>
	<defs>
		<path id="SVGID_1_" d="M162.5,29.5v1.5c-0.1,0.4-0.2,0.7-0.3,1.1c-0.3,1.4-0.8,2.6-1.6,3.8c-0.2,0.3-0.4,0.7-0.6,1
			c-0.1,0.2-0.2,0.5-0.2,0.8c0.1,1.6-0.1,3.2-0.7,4.7c-1.2,3.1-3.3,5.2-6.6,6.1c-0.5,0.1-0.6,0.3-0.7,0.8c-0.1,0.7-0.1,1.5-0.2,2.2
			c-0.4,3-1.4,5.8-2.9,8.4c-1.2,2-2.6,3.7-4.3,5.2c-0.4,0.4-0.5,0.8-0.5,1.3c0,2.2,0,4.3,0,6.5c0,0.2,0,0.5,0,0.7
			c-0.1,0.8-0.5,1.2-1.3,1.2c-0.1,0-0.1,0-0.2,0h-7.5c-0.1,0-0.1,0-0.2,0c-0.8-0.1-1.2-0.4-1.3-1.1c-0.1-0.4-0.1-0.8-0.1-1.2
			c0-0.4,0-0.9,0-1.3c-4.4,1-8.8,1.1-13.2,0c0,0.2,0,0.3,0,0.5c0,0.6,0,1.3,0,1.9c-0.1,0.7-0.5,1.2-1.2,1.3c-0.1,0-0.2,0-0.3,0.1
			h-7.6c-0.1,0-0.1,0-0.2,0c-0.7-0.1-1.1-0.4-1.2-1.1c0-0.3-0.1-0.5-0.1-0.8c0-1.3,0-2.6,0-3.9c0-0.9,0-1.8,0-2.7
			c0-0.5-0.1-0.9-0.5-1.2c-0.3-0.3-0.6-0.6-0.9-0.8c-2.2-2.3-3.9-4.9-5.1-7.8c-0.2-0.4-0.4-0.6-0.8-0.6c-0.4,0-0.8,0-1.1,0
			c-0.6,0-1.3,0-1.9,0c-0.9,0-1.4-0.4-1.5-1.1c0-0.2-0.1-0.4-0.1-0.6c0-0.8,0-1.6,0-2.4c0-2.9,0-5.8,0-8.7c0-0.1,0-0.1,0-0.2
			c0.1-0.8,0.3-1.5,1.5-1.5c1,0,2,0,2.9,0c0.6,0,0.7,0,1-0.6c0.8-1.5,1.5-2.9,2.3-4.4c0.2-0.4,0.2-0.7,0-1c-1.3-2.1-2.6-4.2-3.8-6.3
			c-0.2-0.3-0.4-0.6-0.5-1c-0.2-0.6-0.1-1.1,0.4-1.5c0.2-0.2,0.3-0.3,0.5-0.4c3-1.9,6.1-1.9,9.2-0.2c0.9,0.5,1.7,1.3,2.4,2.1
			c0.3,0.4,0.5,0.4,0.9,0.2c0.3-0.2,0.6-0.3,0.9-0.5c2.1-1,4.4-1.4,6.7-1.6c2.1-0.2,4.1-0.2,6.2-0.1c2.6,0.1,5.1,0.5,7.6,1.1
			c1.9,0.5,3.8,1.2,5.5,2.3c2.8,1.8,5.1,4.2,7,6.9c0.7,1.1,1.4,2.2,1.8,3.4c0.5,1.4,0.9,2.7,1.3,4.1c0.2,0.5,0.3,1,0.5,1.5
			c0.4,0,0.8,0,1.2-0.2c2-0.9,3.3-2.5,3.9-4.5c0.1-0.3,0.1-0.6,0.2-0.9c-0.1,0-0.2,0-0.3,0.1c-1.6,0.3-2.9-0.2-3.8-1.4
			c-0.7-0.9-1-2-0.9-3.2c0.1-1.4,0.7-2.5,1.9-3.3c0.7-0.5,1.5-0.7,2.4-0.6c0.7,0.1,1.3,0.4,1.8,0.8c0.4,0.3,0.7,0.5,1,0.8
			c0-0.1,0.1-0.2,0.1-0.3c0.4-0.8,0.5-1.7,0.6-2.6c0-0.3,0.1-0.7,0.2-1c0.4-0.9,1.5-1.1,2.1-0.3C162.2,29.1,162.3,29.3,162.5,29.5z
			 M112.1,72h5.3v-0.2c0-0.7,0-1.3,0-2c0-0.3,0-0.6,0.1-0.9c0.2-0.6,0.6-0.9,1.3-0.9c0.2,0,0.4,0.1,0.6,0.1c1.8,0.5,3.6,0.9,5.5,1
			c2.2,0.2,4.3,0,6.4-0.4c1-0.2,1.9-0.5,2.9-0.7c0.9-0.2,1.6,0.2,1.7,1.1c0,0,0,0,0,0c0,0.9,0,1.7,0,2.5c0,0.1,0,0.2,0,0.3h5.3v-0.3
			c0-2.1,0-4.2,0-6.4c0-0.7,0.3-1.3,0.8-1.8c0.6-0.5,1.1-1,1.6-1.5c2.2-2.2,3.7-4.9,4.6-7.8c1-3,1.2-6,0.5-9c-0.7-3.2-2.1-6-4.1-8.6
			c-2.3-3-5.3-5.1-9-6.3c-3.1-1-6.2-1.4-9.4-1.5c-1.6,0-3.1,0.1-4.6,0.3c-2.5,0.4-4.8,1.2-7,2.3c-0.3,0.2-0.7,0.3-1.1,0.5
			c-0.4,0.1-0.8,0-1.1-0.3c-0.2-0.3-0.5-0.6-0.7-0.9c-0.4-0.6-0.9-1.2-1.5-1.6c-1.9-1.4-3.9-1.7-6.1-0.8c-0.1,0-0.1,0.1-0.2,0.1
			c0,0.1,0.1,0.1,0.1,0.2c0.8,1.3,1.5,2.6,2.3,3.8c0.6,1,1.2,1.9,1.7,2.9c0.4,0.6,0.3,1.2-0.1,1.8c0,0-0.1,0.1-0.1,0.2
			c-0.9,1.2-1.6,2.4-2.2,3.7c-0.3,0.8-0.6,1.5-0.9,2.3c-0.3,0.7-0.7,1.1-1.5,1.1H103c-0.8,0-1.6,0-2.4,0c-0.4,0-0.4,0-0.4,0.4v8v0.3
			h0.3c1,0,2,0,2.9,0c0.7,0,1.2,0.3,1.5,1c0.1,0.3,0.2,0.6,0.4,0.9c0.7,1.9,1.6,3.7,2.8,5.3c0.9,1.2,2,2.3,3.2,3.3
			c0.4,0.4,0.7,0.8,0.8,1.4c0,0.3,0,0.6,0,0.9c0,2,0,3.9,0,5.9V72z M157.1,35.7c0-0.1,0-0.2,0-0.3c-0.1-0.5-0.4-0.9-0.9-1
			c-0.5-0.1-0.9,0-1.2,0.3c-0.7,0.6-0.6,1.8,0.2,2.3c0.4,0.3,0.9,0.3,1.4,0C156.9,36.6,157.1,36.2,157.1,35.7z"/>
	</defs>
	<clipPath id="SVGID_2_">
		<use xlink:href="#SVGID_1_"  style="overflow:visible;"/>
	</clipPath>
	<g class="st0">
		<defs>
			<rect id="SVGID_3_" x="-62.5" y="-82" width="375" height="667"/>
		</defs>
		<clipPath id="SVGID_4_">
			<use xlink:href="#SVGID_3_"  style="overflow:visible;"/>
		</clipPath>
		<rect x="92.5" y="20" class="st1" width="75" height="60"/>
	</g>
</g>
<g>
	<defs>
		<path id="SVGID_5_" d="M146,46.2c0,0.9-0.4,1.5-0.9,1.7c-0.6,0.2-1.2-0.1-1.4-0.7c-0.2-0.4-0.3-0.9-0.5-1.3
			c-0.8-2.7-2.3-4.8-4.2-6.7c-0.3-0.3-0.5-0.6-0.7-0.9c-0.4-0.7-0.3-1.6,0.3-2.1c0.3-0.3,0.7-0.3,1-0.2c0.3,0.1,0.6,0.3,0.9,0.6
			c2.5,2.3,4.3,5.2,5.3,8.7C145.9,45.7,146,46,146,46.2"/>
	</defs>
	<clipPath id="SVGID_6_">
		<use xlink:href="#SVGID_5_"  style="overflow:visible;"/>
	</clipPath>
	<g class="st2">
		<defs>
			<rect id="SVGID_7_" x="-64" y="-83" width="375" height="667"/>
		</defs>
		<clipPath id="SVGID_8_">
			<use xlink:href="#SVGID_7_"  style="overflow:visible;"/>
		</clipPath>
		<rect x="133" y="31" class="st3" width="18" height="22"/>
	</g>
</g>
<g>
	<defs>
		<path id="SVGID_9_" d="M110,44c0.1-1.2,0.6-2.4,1.7-3.2c1.8-1.4,4.2-0.9,5.5,1.1c0.5,0.8,0.8,1.7,0.8,2.6c0,0.3-0.1,0.6-0.2,0.8
			c-0.2,0.5-0.7,0.7-1.2,0.7c-0.5,0-0.9-0.3-1.1-0.8c-0.1-0.3-0.1-0.5-0.2-0.8c-0.1-0.3-0.1-0.6-0.3-0.8c-0.5-0.8-1.7-0.8-2.1,0.1
			c-0.1,0.3-0.2,0.6-0.3,0.9c-0.1,0.3-0.1,0.6-0.3,0.8c-0.5,0.8-1.6,0.9-2.1,0.1C110,45.1,110,44.7,110,44"/>
	</defs>
	<clipPath id="SVGID_10_">
		<use xlink:href="#SVGID_9_"  style="overflow:visible;"/>
	</clipPath>
	<g class="st4">
		<defs>
			<rect id="SVGID_11_" x="-62" y="-82" width="375" height="667"/>
		</defs>
		<clipPath id="SVGID_12_">
			<use xlink:href="#SVGID_11_"  style="overflow:visible;"/>
		</clipPath>
		<rect x="105" y="35" class="st5" width="18" height="16"/>
	</g>
</g>
<g>
	<path class="st6" d="M32.6,109.8c0,3.3,0.8,3.7,4.5,3.7v0.9c-1.8,0-4.9-0.1-8.2-0.1c-2.4,0-5,0.1-7.2,0.1v-0.8
		c2.4-0.1,2.9-0.5,2.9-3.4V90.3c0-2.9-0.4-3.3-2.9-3.4v-0.8c1.5,0.1,4.3,0.1,6.9,0.1c2.7,0,5.4-0.1,6.4-0.1c8.1,0,12.1,3.2,12.1,7.9
		c0,3.9-2.7,8.9-12.9,8.9h-1.5V109.8z M32.6,90.3v11.8h1.1c4.1,0,4.9-3.6,4.9-7.7c0-5-1-7.6-3.8-7.6C33,86.9,32.6,87.6,32.6,90.3z"
		/>
	<path class="st6" d="M64.5,95.1c1.1,1.2,1.3,2.8,1.3,5.6v10.7c0,1.3,0.2,1.7,0.6,1.7c0.5,0,0.9-0.3,1.2-0.6l0.4,0.7
		c-1.3,1.1-2.9,1.5-5.2,1.5c-3,0-4.1-1.4-4.1-3c-1.1,1.8-3.2,3-5.7,3c-3.2,0-5-1.8-5-4.6c0-2.7,1.6-4.5,5.1-5.6
		c3.1-1.1,5.6-1.9,5.6-3.7v-3.6c0-1.2-0.4-3.3-3-3.3c-0.7,0-1.5,0.3-2.1,0.7c1.7,0.6,2.7,1.8,2.7,3.6c0,1.9-1.5,3.4-3.8,3.4
		c-2,0-3.3-1.5-3.3-3.5c0-1.7,1.1-2.9,2.5-3.7c1.6-0.8,3.6-1.3,6.4-1.3S62.9,93.5,64.5,95.1z M58.6,102.4c-0.3,0.5-1,1.2-1.6,1.8
		c-1.2,1.2-2,2.6-2,4.5c0,2.1,0.9,2.8,2,2.8c0.6,0,1-0.2,1.5-0.7V102.4z"/>
	<path class="st6" d="M89.8,110c0,2.4,0.5,3.5,2.2,3.5v0.8c-0.8-0.1-1.7-0.1-2.5-0.1c-2.7,0-4.9,0.2-7,0.5V112c-1.1,2.1-2.5,3-4.9,3
		c-4.6,0-8.2-3.2-8.2-11.1c0-7.2,3.5-10.8,8.9-10.8c1.8,0,3.1,0.3,4.2,1v-6.2c0-2.4-0.6-3.5-2.2-3.5v-0.8c0.8,0.1,1.7,0.1,2.5,0.1
		c2.7,0,5-0.2,7-0.6V110z M82.6,110V94.9c-0.6-0.4-1.3-0.5-1.9-0.5c-2.5,0-3.7,3.1-3.7,9.6c0,7.1,1.2,8.9,2.7,8.9
		C81.2,112.9,82.6,111.7,82.6,110z"/>
	<path class="st6" d="M114.1,110c0,2.4,0.5,3.5,2.2,3.5v0.8c-0.8-0.1-1.7-0.1-2.5-0.1c-2.7,0-4.9,0.2-7,0.5V112
		c-1.1,2.1-2.5,3-4.9,3c-4.6,0-8.2-3.2-8.2-11.1c0-7.2,3.5-10.8,8.9-10.8c1.8,0,3.1,0.3,4.2,1v-6.2c0-2.4-0.6-3.5-2.2-3.5v-0.8
		c0.8,0.1,1.7,0.1,2.5,0.1c2.7,0,5-0.2,7-0.6V110z M106.9,110V94.9c-0.6-0.4-1.3-0.5-1.9-0.5c-2.5,0-3.7,3.1-3.7,9.6
		c0,7.1,1.2,8.9,2.7,8.9C105.5,112.9,106.9,111.7,106.9,110z"/>
	<path class="st6" d="M127.3,110.7c0,2.2,0.6,2.9,2.2,2.9v0.8c-1.1,0-3.4-0.2-5.7-0.2c-2.2,0-4.8,0.1-6,0.2v-0.8
		c1.6,0,2.2-0.6,2.2-2.9V98c0-2.4-0.6-3.5-2.2-3.5v-0.8c0.8,0.1,1.7,0.1,2.5,0.1c2.7,0,5-0.2,7-0.5V110.7z M127.8,86.6
		c0,2.3-1.6,3.4-4.4,3.4c-2.8,0-4.4-1.2-4.4-3.4c0-2.3,1.5-3.5,4.4-3.5C126.2,83.1,127.8,84.3,127.8,86.6z"/>
	<path class="st6" d="M151.4,94.7c0.8,1,1.2,2.4,1.2,5.2v10.8c0,2.2,0.6,2.9,2.2,2.9v0.8c-1.1,0-3.5-0.2-5.6-0.2
		c-2.2,0-4.6,0.1-5.7,0.2v-0.8c1.4,0,1.8-0.6,1.8-2.9v-13c0-1.7-0.6-2.5-2-2.5c-1.5,0-2.9,1.2-2.9,2.9v12.7c0,2.2,0.5,2.9,1.9,2.9
		v0.8c-1,0-3.2-0.2-5.3-0.2c-2.2,0-4.8,0.1-6,0.2v-0.8c1.6,0,2.2-0.6,2.2-2.9V98c0-2.4-0.6-3.5-2.2-3.5v-0.8
		c0.8,0.1,1.7,0.1,2.5,0.1c2.7,0,5-0.2,7-0.5v2.9c1.3-2.1,3.5-3,6.4-3C149.3,93.1,150.6,93.8,151.4,94.7z"/>
	<path class="st6" d="M171.4,108.8c3.2,0,5.9,1.1,5.9,4.7c0,4-3.8,8.4-11.8,8.4c-7.4,0-9.4-1.8-9.4-3.3c0-2.9,5-1.2,6.6-3.2h-1.3
		c-1.6,0-4.8-0.6-4.8-4.2c0-2.6,1.4-4.2,5.2-6c-2.9-0.9-4.9-2.8-4.9-5.8c0-4.4,4-6.4,9.4-6.4c0.8,0,1.6,0,2.4,0.2c0-0.3,0-0.5,0-0.8
		c0-3,1.3-5.3,4.5-5.3c1.9,0,3.5,1,3.5,2.7c0,1.5-1.4,2.6-3.3,2.6c-1.9,0-2.9-0.8-3.6-2.1c-0.2,0.6-0.3,1.3-0.3,2.1
		c0,0.3,0,0.6,0.1,0.9c3.7,0.7,6.1,2.7,6.1,6.1c0,4.4-4,6.4-9.4,6.4c-1.4,0-2.6-0.1-3.8-0.4c-1,0.7-1.6,1.1-1.6,2
		c0,0.9,0.5,1.3,1.4,1.3H171.4z M171.7,116.7c0-0.8-0.4-1.3-1.8-1.3h-6.5c-0.4,0.9-0.5,2.1-0.5,2.6c0,2,1.2,3.2,3.6,3.2
		C169.6,121.2,171.7,119.4,171.7,116.7z M164.2,99.5c0,4.3,0.8,5.7,2,5.7c1.3,0,2.1-1.4,2.1-5.7s-0.8-5.7-2.1-5.7
		C164.9,93.8,164.2,95.2,164.2,99.5z"/>
	<path class="st6" d="M191.6,93.7v0.8h-3.9V111c0,1,0.3,1.4,1.2,1.4c0.5,0,1.4-0.3,2.1-1.2l0.6,0.5c-1.1,1.9-2.9,3.2-5.7,3.2
		c-1.8,0-3.2-0.4-4.1-1.4c-1.2-1.2-1.4-2.8-1.4-5.6V94.5h-3v-0.8h3v-4.8c2.9,0,5.1-0.5,7.2-1.8v6.5H191.6z"/>
	<path class="st6" d="M213.2,104.1c0,8.1-4.1,10.9-10.3,10.9c-6.2,0-10.3-2.9-10.3-10.9c0-8.1,4.1-11,10.3-11
		C209.1,93.1,213.2,96,213.2,104.1z M200.1,104.1c0,7.1,1.2,10.1,2.8,10.1s2.8-3,2.8-10.1c0-7.2-1.2-10.2-2.8-10.2
		S200.1,96.9,200.1,104.1z"/>
	<path class="st6" d="M235.6,94.7c0.8,1,1.2,2.4,1.2,5.2v10.8c0,2.2,0.6,2.9,2.2,2.9v0.8c-1.1,0-3.5-0.2-5.6-0.2
		c-2.2,0-4.6,0.1-5.7,0.2v-0.8c1.4,0,1.8-0.6,1.8-2.9v-13c0-1.7-0.6-2.5-2-2.5c-1.5,0-2.9,1.2-2.9,2.9v12.7c0,2.2,0.5,2.9,1.9,2.9
		v0.8c-1,0-3.2-0.2-5.3-0.2c-2.2,0-4.8,0.1-6,0.2v-0.8c1.6,0,2.2-0.6,2.2-2.9V98c0-2.4-0.6-3.5-2.2-3.5v-0.8
		c0.8,0.1,1.7,0.1,2.5,0.1c2.7,0,5-0.2,7-0.5v2.9c1.3-2.1,3.5-3,6.4-3C233.5,93.1,234.8,93.8,235.6,94.7z"/>
</g>
</svg>
