<?xml version="1.0" encoding="utf-8"?>
<!-- Generator: Adobe Illustrator 22.1.0, SVG Export Plug-In . SVG Version: 6.00 Build 0)  -->
<svg version="1.1" id="Layer_1" xmlns="http://www.w3.org/2000/svg" xmlns:xlink="http://www.w3.org/1999/xlink" x="0px" y="0px"
	 viewBox="0 0 78 62" style="enable-background:new 0 0 78 62;" xml:space="preserve">
<style type="text/css">
	.st0{clip-path:url(#SVGID_2_);}
	.st1{clip-path:url(#SVGID_4_);fill:#ED3C95;}
	.st2{clip-path:url(#SVGID_6_);}
	.st3{clip-path:url(#SVGID_8_);fill:#ED3C95;}
	.st4{clip-path:url(#SVGID_10_);}
	.st5{clip-path:url(#SVGID_12_);fill:#ED3C95;}
</style>
<g>
	<defs>
		<path id="SVGID_1_" d="M73.5,11.5v1.5c-0.1,0.4-0.2,0.7-0.3,1.1c-0.3,1.4-0.8,2.6-1.6,3.8c-0.2,0.3-0.4,0.7-0.6,1
			c-0.1,0.2-0.2,0.5-0.2,0.8c0.1,1.6-0.1,3.2-0.7,4.7c-1.2,3.1-3.3,5.2-6.6,6.1c-0.5,0.1-0.6,0.3-0.7,0.8c-0.1,0.7-0.1,1.5-0.2,2.2
			c-0.4,3-1.4,5.8-2.9,8.4c-1.2,2-2.6,3.7-4.3,5.2c-0.4,0.4-0.5,0.8-0.5,1.3c0,2.2,0,4.3,0,6.5c0,0.2,0,0.5,0,0.7
			c-0.1,0.8-0.5,1.2-1.3,1.2c-0.1,0-0.1,0-0.2,0h-7.5c-0.1,0-0.1,0-0.2,0c-0.8-0.1-1.2-0.4-1.3-1.1c-0.1-0.4-0.1-0.8-0.1-1.2
			c0-0.4,0-0.9,0-1.3c-4.4,1-8.8,1.1-13.2,0c0,0.2,0,0.3,0,0.5c0,0.6,0,1.3,0,1.9c-0.1,0.7-0.5,1.2-1.2,1.3c-0.1,0-0.2,0-0.3,0.1
			h-7.6c-0.1,0-0.1,0-0.2,0c-0.7-0.1-1.1-0.4-1.2-1.1c0-0.3-0.1-0.5-0.1-0.8c0-1.3,0-2.6,0-3.9c0-0.9,0-1.8,0-2.7
			c0-0.5-0.1-0.9-0.5-1.2c-0.3-0.3-0.6-0.6-0.9-0.8c-2.2-2.3-3.9-4.9-5.1-7.8c-0.2-0.4-0.4-0.6-0.8-0.6c-0.4,0-0.8,0-1.1,0
			c-0.6,0-1.3,0-1.9,0c-0.9,0-1.4-0.4-1.5-1.1c0-0.2-0.1-0.4-0.1-0.6c0-0.8,0-1.6,0-2.4c0-2.9,0-5.8,0-8.7c0-0.1,0-0.1,0-0.2
			c0.1-0.8,0.3-1.5,1.5-1.5c1,0,2,0,2.9,0c0.6,0,0.7,0,1-0.6c0.8-1.5,1.5-2.9,2.3-4.4c0.2-0.4,0.2-0.7,0-1c-1.3-2.1-2.6-4.2-3.8-6.3
			c-0.2-0.3-0.4-0.6-0.5-1c-0.2-0.6-0.1-1.1,0.4-1.5c0.2-0.2,0.3-0.3,0.5-0.4c3-1.9,6.1-1.9,9.2-0.2c0.9,0.5,1.7,1.3,2.4,2.1
			c0.3,0.4,0.5,0.4,0.9,0.2c0.3-0.2,0.6-0.3,0.9-0.5c2.1-1,4.4-1.4,6.7-1.6c2.1-0.2,4.1-0.2,6.2-0.1c2.6,0.1,5.1,0.5,7.6,1.1
			c1.9,0.5,3.8,1.2,5.5,2.3c2.8,1.8,5.1,4.2,7,6.9c0.7,1.1,1.4,2.2,1.8,3.4c0.5,1.4,0.9,2.7,1.3,4.1c0.2,0.5,0.3,1,0.5,1.5
			c0.4,0,0.8,0,1.2-0.2c2-0.9,3.3-2.5,3.9-4.5c0.1-0.3,0.1-0.6,0.2-0.9c-0.1,0-0.2,0-0.3,0.1c-1.6,0.3-2.9-0.2-3.8-1.4
			c-0.7-0.9-1-2-0.9-3.2c0.1-1.4,0.7-2.5,1.9-3.3c0.7-0.5,1.5-0.7,2.4-0.6c0.7,0.1,1.3,0.4,1.8,0.8c0.4,0.3,0.7,0.5,1,0.8
			c0-0.1,0.1-0.2,0.1-0.3c0.4-0.8,0.5-1.7,0.6-2.6c0-0.3,0.1-0.7,0.2-1c0.4-0.9,1.5-1.1,2.1-0.3C73.2,11.1,73.3,11.3,73.5,11.5z
			 M23.1,54h5.3v-0.2c0-0.7,0-1.3,0-2c0-0.3,0-0.6,0.1-0.9c0.2-0.6,0.6-0.9,1.3-0.9c0.2,0,0.4,0.1,0.6,0.1c1.8,0.5,3.6,0.9,5.5,1
			c2.2,0.2,4.3,0,6.4-0.4c1-0.2,1.9-0.5,2.9-0.7c0.9-0.2,1.6,0.2,1.7,1.1c0,0,0,0,0,0c0,0.9,0,1.7,0,2.5c0,0.1,0,0.2,0,0.3h5.3v-0.3
			c0-2.1,0-4.2,0-6.4c0-0.7,0.3-1.3,0.8-1.8c0.6-0.5,1.1-1,1.6-1.5c2.2-2.2,3.7-4.9,4.6-7.8c1-3,1.2-6,0.5-9c-0.7-3.2-2.1-6-4.1-8.6
			c-2.3-3-5.3-5.1-9-6.3c-3.1-1-6.2-1.4-9.4-1.5c-1.6,0-3.1,0.1-4.6,0.3c-2.5,0.4-4.8,1.2-7,2.3c-0.3,0.2-0.7,0.3-1.1,0.5
			c-0.4,0.1-0.8,0-1.1-0.3c-0.2-0.3-0.5-0.6-0.7-0.9c-0.4-0.6-0.9-1.2-1.5-1.6c-1.9-1.4-3.9-1.7-6.1-0.8c-0.1,0-0.1,0.1-0.2,0.1
			c0,0.1,0.1,0.1,0.1,0.2c0.8,1.3,1.5,2.6,2.3,3.8c0.6,1,1.2,1.9,1.7,2.9c0.4,0.6,0.3,1.2-0.1,1.8c0,0-0.1,0.1-0.1,0.2
			c-0.9,1.2-1.6,2.4-2.2,3.7c-0.3,0.8-0.6,1.5-0.9,2.3c-0.3,0.7-0.7,1.1-1.5,1.1H14c-0.8,0-1.6,0-2.4,0c-0.4,0-0.4,0-0.4,0.4v8v0.3
			h0.3c1,0,2,0,2.9,0c0.7,0,1.2,0.3,1.5,1c0.1,0.3,0.2,0.6,0.4,0.9c0.7,1.9,1.6,3.7,2.8,5.3c0.9,1.2,2,2.3,3.2,3.3
			c0.4,0.4,0.7,0.8,0.8,1.4c0,0.3,0,0.6,0,0.9c0,2,0,3.9,0,5.9V54z M68.1,17.7c0-0.1,0-0.2,0-0.3c-0.1-0.5-0.4-0.9-0.9-1
			c-0.5-0.1-0.9,0-1.2,0.3c-0.7,0.6-0.6,1.8,0.2,2.3c0.4,0.3,0.9,0.3,1.4,0C67.9,18.6,68.1,18.2,68.1,17.7z"/>
	</defs>
	<clipPath id="SVGID_2_">
		<use xlink:href="#SVGID_1_"  style="overflow:visible;"/>
	</clipPath>
	<g class="st0">
		<defs>
			<rect id="SVGID_3_" x="-151.5" y="-100" width="375" height="667"/>
		</defs>
		<clipPath id="SVGID_4_">
			<use xlink:href="#SVGID_3_"  style="overflow:visible;"/>
		</clipPath>
		<rect x="3.5" y="2" class="st1" width="75" height="60"/>
	</g>
</g>
<g>
	<defs>
		<path id="SVGID_5_" d="M57,28.2c0,0.9-0.4,1.5-0.9,1.7c-0.6,0.2-1.2-0.1-1.4-0.7c-0.2-0.4-0.3-0.9-0.5-1.3
			c-0.8-2.7-2.3-4.8-4.2-6.7c-0.3-0.3-0.5-0.6-0.7-0.9c-0.4-0.7-0.3-1.6,0.3-2.1c0.3-0.3,0.7-0.3,1-0.2c0.3,0.1,0.6,0.3,0.9,0.6
			c2.5,2.3,4.3,5.2,5.3,8.7C56.9,27.7,57,28,57,28.2"/>
	</defs>
	<clipPath id="SVGID_6_">
		<use xlink:href="#SVGID_5_"  style="overflow:visible;"/>
	</clipPath>
	<g class="st2">
		<defs>
			<rect id="SVGID_7_" x="-153" y="-101" width="375" height="667"/>
		</defs>
		<clipPath id="SVGID_8_">
			<use xlink:href="#SVGID_7_"  style="overflow:visible;"/>
		</clipPath>
		<rect x="44" y="13" class="st3" width="18" height="22"/>
	</g>
</g>
<g>
	<defs>
		<path id="SVGID_9_" d="M21,26c0.1-1.2,0.6-2.4,1.7-3.2c1.8-1.4,4.2-0.9,5.5,1.1c0.5,0.8,0.8,1.7,0.8,2.6c0,0.3-0.1,0.6-0.2,0.8
			c-0.2,0.5-0.7,0.7-1.2,0.7c-0.5,0-0.9-0.3-1.1-0.8c-0.1-0.3-0.1-0.5-0.2-0.8c-0.1-0.3-0.1-0.6-0.3-0.8c-0.5-0.8-1.7-0.8-2.1,0.1
			c-0.1,0.3-0.2,0.6-0.3,0.9c-0.1,0.3-0.1,0.6-0.3,0.8c-0.5,0.8-1.6,0.9-2.1,0.1C21,27.1,21,26.7,21,26"/>
	</defs>
	<clipPath id="SVGID_10_">
		<use xlink:href="#SVGID_9_"  style="overflow:visible;"/>
	</clipPath>
	<g class="st4">
		<defs>
			<rect id="SVGID_11_" x="-151" y="-100" width="375" height="667"/>
		</defs>
		<clipPath id="SVGID_12_">
			<use xlink:href="#SVGID_11_"  style="overflow:visible;"/>
		</clipPath>
		<rect x="16" y="17" class="st5" width="18" height="16"/>
	</g>
</g>
</svg>
