<?xml version="1.0" encoding="UTF-8"?>
<svg width="51px" height="49px" viewBox="0 0 51 49" version="1.1" xmlns="http://www.w3.org/2000/svg" xmlns:xlink="http://www.w3.org/1999/xlink">
    <!-- Generator: Sketch 51.3 (57544) - http://www.bohemiancoding.com/sketch -->
    <title>Pig Tip</title>
    <desc>Created with Sketch.</desc>
    <defs></defs>
    <g id="Page-1" stroke="none" stroke-width="1" fill="none" fill-rule="evenodd">
        <g id="Mobile-Copy-42" transform="translate(-269.000000, -395.000000)" fill="#FFFFFF">
            <g id="Pig-Tip" transform="translate(269.000000, 394.000000)">
                <path d="M23.5231152,21 C19.9215327,21.0025387 17.0025427,23.9169166 17,27.5128085 C17.0321879,29.8600275 18.1760446,32.0533115 20.0835704,33.4255709 L20.0835704,38.1290095 C20.0851307,38.1827828 20.0960526,38.2359215 20.1159317,38.2859446 L20.1159317,38.3228705 C20.1239065,38.3419105 20.1332103,38.3604311 20.14367,38.3782594 L21.7709815,40.7969069 C21.8570857,40.9241283 22.0009202,41.0002303 22.1546942,40.9999995 L24.8453058,40.9999995 C24.9990798,41.0002303 25.1429143,40.9241283 25.2290185,40.7969069 L26.85633,38.3782594 C26.8667897,38.3604311 26.8760935,38.3419105 26.8840683,38.3228705 L26.8840683,38.2859446 C26.9039474,38.2359215 26.9148693,38.1827828 26.9164296,38.1290095 L26.9164296,33.4255709 C28.8240132,32.0533115 29.9678121,29.8600275 30,27.5128085 C29.9975729,23.9348603 27.1066101,21.0278675 23.5231152,21 Z M24.6233997,40.0906988 L22.4228307,40.0906988 L21.4150071,38.5951992 L25.6266003,38.5951992 L24.6233997,40.0906988 Z M21.0128023,37.6720513 L21.0128023,36.4488803 L26.0334282,36.4488803 L26.0380512,37.6720513 L21.0128023,37.6720513 Z M26.2460882,32.7932146 L26.2460882,32.8070618 C26.115545,32.8928568 26.0373,33.0387142 26.0380512,33.1947839 L26.0380512,35.5395796 L21.0128023,35.5395796 L21.0128023,33.1670895 C21.0135535,33.0110198 20.9353085,32.8651624 20.8047653,32.7793673 C19.0348329,31.5984881 17.9596862,29.6241055 17.9292319,27.4989613 C18.0180521,24.4131663 20.5955725,21.9834987 23.6862509,22.0721786 C26.652107,22.1572813 29.0363842,24.5377913 29.1216216,27.4989613 C29.0957326,29.6290674 28.020008,31.6095658 26.2460882,32.7932146 Z" id="Shape" stroke="#FFFFFF" stroke-width="0.25" fill-rule="nonzero"></path>
                <path d="M23.4748338,23 C23.2126068,23 23,23.2551282 23,23.5698006 C23,23.8844729 23.2126068,24.1396011 23.4748338,24.1396011 C25.4484212,24.142735 27.0477208,26.0618946 27.0503324,28.4301994 C27.0503324,28.7448718 27.2629392,29 27.5251662,29 C27.7873932,29 28,28.7448718 28,28.4301994 C27.9973884,25.4324786 25.9729345,23.0031339 23.4748338,23 Z" id="Shape" fill-rule="nonzero"></path>
                <path d="M34.2815816,5.10721187 C34.0425791,4.91721187 33.6901003,4.91721187 33.4510978,5.10721187 L30.1888534,8.13536002 C29.9385193,8.36580447 29.9368434,8.74106373 30.1851028,8.9734341 C30.3058409,9.08647113 30.4705492,9.14965632 30.6421202,9.14869336 L30.6357362,9.14276743 C30.8053921,9.14365632 30.9685043,9.08180447 31.089003,8.97091558 L34.3512474,5.94276743 C34.5805941,5.69417484 34.5493921,5.32010076 34.2815816,5.10721187 Z" id="Shape" fill-rule="nonzero"></path>
                <path d="M16.3159102,8.13536027 L13.0536658,5.10721212 C12.7858554,4.89432323 12.3828628,4.9232862 12.1535162,5.17187879 C11.9488279,5.39373064 11.9488279,5.72091583 12.1535162,5.94276768 L15.4157606,8.97091583 C15.6835711,9.18380472 16.0865636,9.15484175 16.3159102,8.90624916 C16.5205985,8.68439731 16.5205985,8.35721212 16.3159102,8.13536027 Z" id="Shape" fill-rule="nonzero"></path>
                <path d="M23.6386989,0.964711874 C23.2861403,0.964711874 23.0002949,1.23004521 23.0002949,1.55730447 L23.0002949,5.84174891 C22.9896815,6.16886002 23.2668286,6.44204521 23.6192276,6.45182298 C23.6256914,6.45197113 23.6321553,6.45211928 23.6386989,6.45211928 C23.9912575,6.45211928 24.2771029,6.18678595 24.2771029,5.85952669 L24.2771029,1.55730447 C24.2771029,1.23004521 23.9912575,0.964711874 23.6386989,0.964711874 Z" id="Shape" fill-rule="nonzero"></path>
                <g id="Home-Copy" transform="translate(0.000000, 11.000000)">
                    <path d="M46.8088733,8.33269702 C46.8004461,8.27145502 46.794828,8.17884517 46.77376,8.09071645 C46.6768472,7.70235257 46.4633582,7.40809225 46.0630663,7.27813972 C45.7077194,7.16312426 45.3945086,7.25573411 45.1262427,7.49472726 C44.5826884,7.98167582 44.6529151,8.88984981 45.2596734,9.29763188 C45.6094021,9.53065021 46.0040759,9.52616909 46.3411638,9.27671998 C46.6501611,9.04818278 46.7920189,8.73749167 46.8088733,8.33269702 Z M11.4539671,36.6698167 L15.6127895,36.6698167 L15.6127895,36.4801159 C15.6127895,35.9647869 15.6015532,35.4479642 15.6170031,34.9326352 C15.6240258,34.6861735 15.6521164,34.433737 15.7139159,34.1917565 C15.8417284,33.6973394 16.1956707,33.4673084 16.7167525,33.5166008 C16.8796783,33.5330316 17.0468178,33.561412 17.20553,33.6062232 C18.6128721,34.0125116 20.0440913,34.2768978 21.5090193,34.3814573 C23.1986726,34.5024476 24.8770896,34.4143188 26.5344386,34.0857032 C27.2886729,33.9378262 28.0302663,33.7302009 28.7760734,33.5479686 C29.5120487,33.3687238 30.0247033,33.6973394 30.1440886,34.4307496 C30.1468976,34.4412056 30.1483022,34.4516615 30.1483022,34.4621175 C30.1581339,35.1253235 30.1665611,35.7870358 30.1763928,36.4487481 C30.1777974,36.5234334 30.1763928,36.5981188 30.1763928,36.6772853 L34.3408334,36.6772853 L34.3408334,36.4771285 C34.3394288,34.8191135 34.3380243,33.1640859 34.3352152,31.5075646 C34.3338107,30.9474244 34.5515133,30.4933374 34.9813004,30.1199106 C35.4209193,29.7375215 35.8535155,29.3461702 36.2594255,28.9324133 C37.9701468,27.1862696 39.1555727,25.1339159 39.9013797,22.8336067 C40.6514004,20.521348 40.805899,18.1762276 40.2960535,15.796752 C39.7679491,13.327654 38.6836496,11.108005 37.1175952,9.11390589 C35.2860841,6.78222892 32.9601774,5.13018873 30.0921208,4.22350845 C27.6833466,3.46022406 25.2057503,3.13160847 22.686018,3.07335389 C21.4654788,3.04497345 20.2519622,3.14505183 19.0454683,3.34371489 C17.1100218,3.66336824 15.2644653,4.24591406 13.5172262,5.12570761 C13.2461513,5.26163497 12.9708628,5.39158749 12.6857426,5.49315959 C12.3542728,5.60966875 12.043871,5.53050227 11.8107185,5.26611609 C11.6211066,5.04803483 11.4511581,4.8135228 11.2840186,4.57602335 C10.9483352,4.09953075 10.5705158,3.65739341 10.0943791,3.31384075 C8.62523753,2.25181491 7.0395197,1.97398537 5.3189667,2.65810328 C5.27542618,2.67602776 5.23469472,2.69992708 5.1869406,2.7253201 C5.22064939,2.78357468 5.24593099,2.83137332 5.27402165,2.87767824 C5.88077993,3.87547466 6.48894274,4.87177738 7.09570103,5.86957381 C7.55357881,6.62389595 8.01567018,7.37672439 8.46371623,8.13851508 C8.74040924,8.61052656 8.69967778,9.07208209 8.36961251,9.50973831 C8.33871279,9.54857469 8.31062213,9.5903985 8.28112693,9.62923488 C7.60835559,10.54189 7.01564264,11.5023437 6.55636033,12.5359891 C6.29371265,13.1274972 6.06617829,13.7324486 5.84426207,14.3388938 C5.63920024,14.8960466 5.28806698,15.158939 4.69114043,15.1604327 L4.34281623,15.1604327 C3.70515822,15.1634201 3.06609567,15.1664076 2.4298422,15.1723824 C2.11803586,15.1753698 2.11803586,15.1798509 2.11803586,15.475605 L2.11803586,21.7491753 L2.11803586,21.9717377 L2.33854755,21.9717377 C3.10823167,21.9717377 3.87932032,21.9821936 4.6475999,21.9687502 C5.22345846,21.959788 5.61391865,22.1898189 5.81476688,22.7230724 C5.90465699,22.9680404 6.0071879,23.2085272 6.09848255,23.4534952 C6.63641872,24.9277843 7.35975324,26.3079697 8.32466746,27.5626838 C9.04940652,28.5082005 9.87527196,29.3611073 10.7994547,30.122898 C11.1435653,30.4052086 11.3809314,30.7517487 11.4371127,31.1923923 C11.4666079,31.4164484 11.4525626,31.6464793 11.4525626,31.8750165 C11.4539671,33.4105476 11.4539671,34.9475723 11.4539671,36.484597 L11.4539671,36.6698167 Z M51,3.54237795 L51,4.74929339 C50.9241552,5.02413552 50.831456,5.29748394 50.7696566,5.57531348 C50.533695,6.63733932 50.1249759,7.62318609 49.4887224,8.51941042 C49.3117513,8.76736582 49.1516345,9.031752 49.023822,9.30659412 C48.9409545,9.4873327 48.8777505,9.70392025 48.8889868,9.89810218 C48.9690452,11.1662596 48.8299964,12.4075303 48.3693096,13.5950276 C47.4310815,16.0148333 45.7653053,17.6803168 43.1627055,18.3614473 C42.7764589,18.4630194 42.6640963,18.6064153 42.6346011,19.0067288 C42.5938696,19.5803124 42.5770152,20.1568834 42.5067886,20.7274795 C42.2202638,23.0815621 41.4337253,25.2698432 40.2019498,27.3102473 C39.2847897,28.8323349 38.1344772,30.1677092 36.8451158,31.3925491 C36.5529729,31.6718724 36.4195423,31.9945131 36.4209468,32.3963204 C36.4307786,34.0842095 36.429374,35.7735924 36.4279695,37.4629753 C36.4279695,37.6407264 36.4167332,37.821465 36.3942607,37.9977225 C36.3142023,38.6026739 35.9743053,38.9163524 35.3563108,38.9686321 C35.304343,38.9731133 35.2509708,38.9880503 35.1990031,39 L29.2788962,39 C29.2381647,38.989544 29.1988378,38.974607 29.1581064,38.9701259 C28.5625843,38.9178461 28.2381372,38.6519662 28.142629,38.0783826 C28.0920658,37.7691852 28.0962794,37.4510256 28.0892567,37.1373471 C28.0808295,36.7967818 28.0864476,36.4562166 28.0864476,36.0962332 C24.6186555,36.9147847 21.1663132,36.9177721 17.7013302,36.0947395 C17.7013302,36.2321605 17.7041392,36.3516571 17.7013302,36.46966 C17.692903,36.9685582 17.7027347,37.4689501 17.6648123,37.9663546 C17.6198673,38.5489004 17.2996337,38.8685538 16.7448432,38.9596699 C16.6647848,38.9731133 16.5847264,38.9850629 16.504668,39 L10.5508524,39 C10.4932665,38.9880503 10.4356806,38.9731133 10.3780948,38.9671384 C9.8345405,38.913365 9.51430696,38.6340417 9.41739418,38.1112442 C9.38228085,37.9140748 9.36261739,37.7109307 9.36121286,37.5107739 C9.35559472,36.495053 9.35980832,35.4808258 9.35840379,34.4651049 C9.35840379,33.7690373 9.35559472,33.0729697 9.35278566,32.3798896 C9.35138112,32.0139313 9.23901848,31.7032402 8.95249373,31.4522974 C8.71653218,31.2461658 8.50023409,31.0191223 8.2797224,30.7980536 C6.53107874,29.0280106 5.18974966,27.0025436 4.27820771,24.7082093 C4.15741786,24.4064804 3.94111977,24.2615908 3.62088623,24.2541223 C3.32172069,24.2451601 3.02255515,24.2391852 2.72338961,24.2361978 C2.2303985,24.2347041 1.7374074,24.2406789 1.24441629,24.2347041 C0.549172427,24.2287293 0.165734901,23.9404438 0.0491586572,23.3399735 C0.0210679959,23.1950839 0.00983173143,23.0487006 0.00842719837,22.9023173 C0.00140453306,22.2779476 0,21.653578 0,21.0292084 C0.00140453306,18.7572797 0.00421359918,16.4883385 0.00561813225,14.2179035 C0.00561813225,14.174586 0.00561813225,14.1312685 0.00983173143,14.0879509 C0.0575858555,13.4815058 0.240175154,12.9049348 1.2107075,12.8899978 C1.97617802,12.8765544 2.74164854,12.873567 3.50571452,12.8899978 C3.99308749,12.9004537 4.08157308,12.8646047 4.2992757,12.444873 C4.88917959,11.3081618 5.48048801,10.1729443 6.08162816,9.04370165 C6.22629506,8.76885952 6.223486,8.52837266 6.05915563,8.26249278 C5.05491449,6.63883303 4.05769601,5.01069215 3.06328661,3.38105757 C2.92002424,3.14355812 2.78799813,2.89560273 2.69108535,2.63719138 C2.52254138,2.19505404 2.61804963,1.79175309 2.97480102,1.46463121 C3.10823167,1.34214721 3.24728044,1.22414434 3.40177908,1.13004079 C5.76841728,-0.324830046 8.17157335,-0.374122384 10.5972019,0.977682652 C11.3359863,1.38994585 11.9511718,1.95456718 12.4848944,2.60432982 C12.7180469,2.88813419 12.8725455,2.91203351 13.1998017,2.73876347 C13.4385723,2.61179835 13.6787475,2.48632695 13.9245408,2.37579261 C15.5846989,1.62296417 17.3487924,1.28090522 19.1550219,1.10315406 C20.7716394,0.944821093 22.3952797,0.9254029 24.0189199,0.995607139 C26.0344248,1.08373587 28.0176255,1.37650248 29.9685219,1.88286923 C31.4797995,2.27422052 32.9348958,2.79701805 34.2551568,3.63797522 C36.4799372,5.05998449 38.2917849,6.88380101 39.7468811,9.04967648 C40.3044807,9.8801777 40.8185398,10.7390594 41.1472006,11.684576 C41.5151882,12.7466019 41.8424444,13.8235648 42.1809369,14.8945528 C42.3073449,15.2903853 42.418303,15.6921925 42.5348792,16.0865312 C42.824213,16.0999746 43.1233786,16.0581508 43.4632756,15.9042989 C45.0475889,15.194788 46.0448074,13.9893663 46.539203,12.3686939 C46.6094296,12.1356756 46.6333067,11.8877202 46.6810608,11.6278151 C46.5701027,11.6502208 46.4998761,11.6636641 46.4282449,11.6756138 C45.1964694,11.8922013 44.1838011,11.5142934 43.4155215,10.5538397 C42.8284266,9.82192312 42.6065104,8.96901629 42.6851643,8.04739894 C42.779268,6.96147379 43.2469775,6.06973057 44.1669467,5.434905 C44.7414007,5.03608518 45.3762496,4.85385289 46.0827298,4.98081801 C46.623475,5.07641527 47.0968026,5.32138326 47.5322079,5.6410366 C47.8089009,5.84567449 48.0687395,6.06973057 48.3510506,6.29677407 C48.3805458,6.23105095 48.4114456,6.16383413 48.4395362,6.0951236 C48.7190383,5.43639871 48.8454463,4.74630597 48.8932004,4.03679504 C48.9100548,3.78585223 48.9479772,3.52445347 49.0420809,3.29292885 C49.3173694,2.6013424 50.1853708,2.47288358 50.6657211,3.04198603 C50.7949382,3.19583788 50.8890419,3.37508274 51,3.54237795 Z" id="Fill-1"></path>
                    <path d="M8.00500087,14.6860064 C8.06030566,13.8868073 8.39777779,13.10084 9.09529542,12.5252579 C10.212678,11.6056497 11.7408963,11.9258586 12.5230641,13.2331577 C12.8424775,13.7677214 13.0117779,14.3552121 12.9993625,14.9903372 C12.9959765,15.1795515 12.9372857,15.3819977 12.8571502,15.5513644 C12.7081659,15.8636342 12.4485719,16.0118301 12.1201292,15.9919824 C11.8029731,15.9747811 11.5828826,15.7895363 11.4609863,15.4852055 C11.3921375,15.3184852 11.3695641,15.1266245 11.3210313,14.9479955 C11.2724985,14.7693666 11.2397671,14.5788291 11.1551169,14.421371 C10.8560195,13.869606 10.1009398,13.8881305 9.82893047,14.4557736 C9.7431516,14.6344025 9.72057821,14.847434 9.66414475,15.0445875 C9.61335463,15.2218932 9.58175189,15.4124308 9.49935903,15.5725352 C9.21493436,16.1203306 8.52193141,16.1441478 8.18671663,15.6294318 C8.02870292,15.3859672 7.98355615,15.1107463 8.00500087,14.6860064" id="Fill-6"></path>
                </g>
            </g>
        </g>
    </g>
</svg>