<?xml version="1.0" encoding="UTF-8"?>
<svg width="24px" height="19px" viewBox="0 0 24 19" version="1.1" xmlns="http://www.w3.org/2000/svg" xmlns:xlink="http://www.w3.org/1999/xlink">
    <!-- Generator: Sketch 51.3 (57544) - http://www.bohemiancoding.com/sketch -->
    <title>Budgeting</title>
    <desc>Created with Sketch.</desc>
    <defs></defs>
    <g id="Page-1" stroke="none" stroke-width="1" fill="none" fill-rule="evenodd">
        <g id="Nav-Bar" transform="translate(-105.000000, -71.000000)" fill="#ED3C95">
            <g id="Nav" transform="translate(0.000000, 62.000000)">
                <path d="M112.034346,26.7832593 C112.034346,25.1058407 112.035122,23.4766326 112.03357,21.8474245 C112.03357,21.5382652 111.813917,21.5290822 111.581844,21.5290822 C110.565074,21.531378 109.549855,21.5436219 108.533861,21.5229603 C108.141899,21.5153078 108.039446,21.6668265 108.042551,22.0303182 C108.058074,23.5041814 108.047984,24.9780447 108.050312,26.4511427 C108.050312,26.5605728 108.070493,26.6692377 108.080583,26.7832593 L112.034346,26.7832593 Z M118.970896,26.7840246 C118.989524,26.6967865 119.005823,26.6554633 119.005823,26.6149053 C119.008152,23.1659428 119.005823,19.7177456 119.014361,16.2695485 C119.015137,15.9420233 118.871548,15.8517243 118.568069,15.8547853 C117.596315,15.8639682 116.623786,15.857081 115.651256,15.8586115 C115.037313,15.860142 115.023342,15.8746817 115.022566,16.4899392 C115.02179,19.781261 115.022566,23.0718176 115.023342,26.3631394 C115.023342,26.5008836 115.03576,26.6386279 115.042746,26.7840246 L118.970896,26.7840246 Z M125.988167,26.7847898 C125.996705,26.6860731 126.006795,26.6309754 126.006795,26.5758777 C126.007571,21.2650725 126.005243,15.9550325 126.014556,10.6442272 C126.015333,10.2684916 125.847682,10.1804883 125.516261,10.1835493 C124.542955,10.1912017 123.570426,10.1843145 122.597896,10.1873755 C122.033627,10.1881408 122.020432,10.2034457 122.020432,10.771258 C122.019656,15.9527367 122.019656,21.1342155 122.019656,26.3156942 L122.019656,26.7847898 L125.988167,26.7847898 Z M105,27.2263366 C105.450949,26.5819997 106.158808,26.891159 106.807679,26.7679544 L106.807679,26.3095722 C106.807679,24.8494834 106.804574,23.3886293 106.808455,21.9285405 C106.81156,20.9161204 107.312183,20.3682045 108.331283,20.3406557 C109.477672,20.3092806 110.62639,20.3100458 111.772004,20.3398904 C112.753071,20.3651435 113.277756,20.9367821 113.278532,21.9032874 C113.280085,23.3633762 113.279308,24.823465 113.279308,26.2850844 L113.279308,26.7733111 L113.779932,26.7733111 L113.779932,26.2659532 C113.779932,23.0021802 113.779932,19.7368768 113.780708,16.4723386 C113.780708,15.1660641 114.270466,14.6816636 115.58373,14.6808984 C116.629219,14.6808984 117.673931,14.6786026 118.717868,14.6816636 C119.703592,14.6839593 120.251562,15.2272838 120.251562,16.1983806 C120.253114,19.5624008 120.252338,22.9271862 120.252338,26.2912063 L120.252338,26.7756069 L120.778575,26.7756069 L120.778575,26.3340601 L120.778575,12.2030327 C120.778575,11.5885404 120.752186,10.9725176 120.782456,10.3587906 C120.819712,9.58130091 121.362248,9.03721121 122.146947,9.01961056 C123.39579,8.99206171 124.644632,8.99588794 125.892699,9.01654958 C126.626947,9.02955875 127.167155,9.56829174 127.235458,10.2876227 C127.250981,10.4582725 127.250205,10.631218 127.250205,10.8026331 C127.250205,15.9427885 127.250205,21.082944 127.250205,26.2223342 L127.250205,26.8046862 C127.560669,26.8046862 127.843192,26.8131039 128.125714,26.8023905 C128.48042,26.7893813 128.811064,26.8375918 128.956982,27.2056749 C129.095915,27.5584532 128.875486,27.7926184 128.621681,28 L105,28 L105,27.2263366 Z" id="Budgeting"></path>
            </g>
        </g>
    </g>
</svg>