<?xml version="1.0" encoding="UTF-8"?>
<svg width="24px" height="22px" viewBox="0 0 24 22" version="1.1" xmlns="http://www.w3.org/2000/svg" xmlns:xlink="http://www.w3.org/1999/xlink">
    <!-- Generator: Sketch 51.3 (57544) - http://www.bohemiancoding.com/sketch -->
    <title>home</title>
    <desc>Created with Sketch.</desc>
    <defs></defs>
    <g id="Page-1" stroke="none" stroke-width="1" fill="none" fill-rule="evenodd">
        <g id="Nav-Bar" transform="translate(-27.000000, -72.000000)" fill="#ED3C95" fill-rule="nonzero">
            <g id="home" transform="translate(27.000000, 72.000000)">
                <path d="M23.7452632,8.69739738 L12.3910643,0.161733624 C12.172117,-0.00283406114 11.8746667,-0.00283406114 11.6558129,0.161733624 L0.301520468,8.69739738 C0.0241871345,8.90591703 -0.0360701754,9.30575983 0.167017544,9.59051092 C0.370105263,9.87526201 0.759578947,9.93703493 1.0368655,9.72861135 L12.0233918,1.46929258 L23.0099181,9.72856332 C23.1207018,9.81190393 23.2494503,9.8520131 23.377076,9.8520131 C23.5687018,9.8520131 23.7578012,9.76146725 23.8797193,9.59046288 C24.0828538,9.30575983 24.0225965,8.90591703 23.7452632,8.69739738 Z" id="Shape"></path>
                <path d="M20.736655,9.87324454 C20.3929825,9.87324454 20.1142924,10.1593406 20.1142924,10.5122533 L20.1142924,20.6836026 L15.1354854,20.6836026 L15.1354854,15.1314367 C15.1354854,13.3695153 13.7393684,11.9361528 12.0234386,11.9361528 C10.3075088,11.9361528 8.91139181,13.3696114 8.91139181,15.1314367 L8.91139181,20.6836507 L3.93253801,20.6836507 L3.93253801,10.5123013 C3.93253801,10.1593886 3.65384795,9.87329258 3.31017544,9.87329258 C2.96650292,9.87329258 2.68781287,10.1593886 2.68781287,10.5123013 L2.68781287,21.3227074 C2.68781287,21.6756201 2.96650292,21.9617162 3.31017544,21.9617162 L9.53375439,21.9617162 C9.86105263,21.9617162 10.1288889,21.7020873 10.1536842,21.3724716 C10.1551813,21.3575328 10.156117,21.3412009 10.156117,21.3227074 L10.156117,15.1314847 C10.156117,14.0742838 10.9937778,13.2142183 12.0234386,13.2142183 C13.0530994,13.2142183 13.8907602,14.0743319 13.8907602,15.1314847 L13.8907602,21.3227074 C13.8907602,21.3411048 13.8916959,21.3571485 13.893193,21.3718952 C13.9177076,21.7017511 14.1856374,21.9617162 14.5131228,21.9617162 L20.7367018,21.9617162 C21.0804211,21.9617162 21.3590643,21.6756201 21.3590643,21.3227074 L21.3590643,10.5123013 C21.3590175,10.1593406 21.0803743,9.87324454 20.736655,9.87324454 Z" id="Shape"></path>
            </g>
        </g>
    </g>
</svg>