<?xml version="1.0" encoding="UTF-8"?>
<svg width="18px" height="16px" viewBox="0 0 18 16" version="1.1" xmlns="http://www.w3.org/2000/svg" xmlns:xlink="http://www.w3.org/1999/xlink">
    <!-- Generator: Sketch 51.3 (57544) - http://www.bohemiancoding.com/sketch -->
    <title>Groceries</title>
    <desc>Created with Sketch.</desc>
    <defs></defs>
    <g id="Page-1" stroke="none" stroke-width="1" fill="none" fill-rule="evenodd">
        <g id="Mobile-Copy-42" transform="translate(-36.000000, -721.000000)" fill="#263A7F">
            <g id="Group-2" transform="translate(20.000000, 548.000000)">
                <g id="Groceries" transform="translate(16.000000, 173.000000)">
                    <path d="M14.29677,13.7356444 C14.29407,13.4654222 14.06277,13.2432 13.79097,13.2467556 C13.51647,13.2503111 13.29147,13.4778667 13.29507,13.7472 C13.29867,14.0174222 13.52817,14.2396444 13.80177,14.2360889 C14.07537,14.2334222 14.30037,14.0058667 14.29677,13.7356444 Z M7.19847,13.7445333 C7.20027,13.4752 6.97347,13.2485333 6.70077,13.2467556 C6.42717,13.2449778 6.19767,13.4689778 6.19677,13.7383111 C6.19497,14.0085333 6.42087,14.2352 6.69447,14.2360889 C6.96717,14.2378667 7.19667,14.0147556 7.19847,13.7445333 Z M16.14177,3.33475556 L4.75857,3.33475556 C5.20497,5.32142222 5.65047,7.29564444 6.09417,9.26986667 L14.42457,9.26986667 C14.99607,7.29208889 15.56667,5.32053333 16.14177,3.33475556 Z M0.16857,0.711644444 C0.30177,0.425422222 0.53217,0.3392 0.84357,0.343644444 C1.75257,0.356977778 2.66247,0.348088889 3.57237,0.348088889 C3.94677,0.348088889 4.11237,0.476977778 4.19427,0.8352 C4.30767,1.32853333 4.41837,1.82275556 4.53447,2.33208889 L4.75137,2.33208889 C8.73477,2.33208889 12.71997,2.33297778 16.70427,2.33031111 C16.93917,2.33031111 17.15607,2.37831111 17.24427,2.60586667 C17.29557,2.73742222 17.30097,2.91253333 17.26227,3.05031111 C16.90137,4.33208889 16.52697,5.6112 16.15527,6.8912 C15.87357,7.86453333 15.59187,8.83786667 15.30927,9.8112 C15.21027,10.1534222 15.05367,10.2689778 14.69277,10.2689778 C11.72457,10.2689778 8.75637,10.2698667 5.78727,10.2680889 C5.55057,10.2672 5.35617,10.3285333 5.24457,10.5498667 C5.08887,10.8600889 5.29677,11.2227556 5.64957,11.2574222 C5.71617,11.2645333 5.78367,11.2609778 5.85027,11.2609778 C8.80317,11.2618667 11.75427,11.2618667 14.70627,11.2600889 C14.94297,11.2600889 15.13737,11.3223111 15.24897,11.5418667 C15.41187,11.8654222 15.18327,12.2360889 14.80887,12.2503111 C14.55327,12.2600889 14.29677,12.2520889 14.03667,12.2627556 C14.44617,12.3507556 14.78457,12.5507556 15.02487,12.8885333 C15.26967,13.2343111 15.34527,13.6209778 15.26967,14.0360889 C15.14817,14.7080889 14.48577,15.2396444 13.78287,15.2280889 C13.00347,15.2165333 12.38787,14.6583111 12.30147,13.8627556 C12.23757,13.2672 12.57507,12.4894222 13.57767,12.2592 L6.90597,12.2592 C7.89777,12.4752 8.27037,13.2663111 8.18757,13.8992 C8.08677,14.6769778 7.45407,15.2352 6.69087,15.2280889 C5.90787,15.2218667 5.28147,14.6538667 5.20317,13.8520889 C5.13837,13.1996444 5.54697,12.4592 6.46047,12.2298667 C6.13467,12.2298667 5.80437,12.2556444 5.48217,12.2245333 C4.86207,12.1640889 4.33467,11.6636444 4.22037,11.0680889 C4.09617,10.4218667 4.38597,9.78542222 4.94757,9.47608889 C4.99077,9.45208889 5.03487,9.42897778 5.09337,9.39786667 C4.49037,6.7152 3.88737,4.03164444 3.28167,1.34008889 L1.71477,1.34008889 C1.42317,1.34008889 1.13247,1.32675556 0.84357,1.34364444 C0.53127,1.36231111 0.30177,1.26275556 0.16857,0.976533333 L0.16857,0.711644444 Z" id="Fill-10"></path>
                </g>
            </g>
        </g>
    </g>
</svg>