<?xml version="1.0" encoding="UTF-8"?>
<svg width="17px" height="16px" viewBox="0 0 17 16" version="1.1" xmlns="http://www.w3.org/2000/svg" xmlns:xlink="http://www.w3.org/1999/xlink">
    <!-- Generator: Sketch 51.3 (57544) - http://www.bohemiancoding.com/sketch -->
    <title>Entertainment</title>
    <desc>Created with Sketch.</desc>
    <defs></defs>
    <g id="Page-1" stroke="none" stroke-width="1" fill="none" fill-rule="evenodd">
        <g id="Mobile-Copy-42" transform="translate(-36.000000, -679.000000)" fill="#263A7F">
            <g id="Group-2" transform="translate(20.000000, 548.000000)">
                <g id="Entertainment" transform="translate(16.000000, 131.000000)">
                    <path d="M8.31946,2.64288 C6.18511,4.65168 4.06606,6.64608 1.94361,8.64288 C2.43746,9.43648 2.43576,10.24368 1.94361,11.03328 C3.09451,12.11008 4.23266,13.17648 5.37761,14.24768 C5.39631,14.23888 5.43201,14.21888 5.46771,14.19968 C6.24121,13.77808 7.01896,13.77648 7.79076,14.19568 C7.91826,14.26608 7.98541,14.25808 8.08911,14.15968 C10.12061,12.24048 12.15721,10.32448 14.19211,8.40768 C14.23121,8.37088 14.26946,8.33248 14.31451,8.28768 C13.97961,7.97248 13.65406,7.67008 13.33191,7.36368 C13.11176,7.15408 13.10071,6.88128 13.29961,6.69888 C13.49256,6.52288 13.77561,6.53728 13.99491,6.74048 C14.28731,7.01248 14.57631,7.28768 14.86786,7.56128 C14.90271,7.59408 14.94181,7.62448 14.98601,7.66208 C15.20021,7.45968 15.40081,7.26048 15.61416,7.07488 C15.70511,6.99328 15.70086,6.93568 15.64136,6.83968 C15.20106,6.11728 15.19681,5.38928 15.63966,4.66608 C15.70426,4.56128 15.69746,4.50608 15.60566,4.42048 C14.53466,3.41888 13.46706,2.41408 12.40286,1.40688 C12.31276,1.32128 12.25326,1.31168 12.14106,1.37328 C11.61831,1.65568 11.05476,1.73168 10.47081,1.59328 C10.20816,1.53088 9.95741,1.41968 9.71601,1.33488 C9.48141,1.55648 9.23661,1.78768 8.97566,2.03408 C9.01646,2.06768 9.07426,2.10928 9.12526,2.15808 C9.40576,2.41968 9.68966,2.67888 9.96421,2.94848 C10.21666,3.19728 10.13506,3.57248 9.80866,3.68208 C9.60636,3.75008 9.43211,3.69568 9.28251,3.55408 C8.96036,3.24768 8.63651,2.94288 8.31946,2.64288 Z M12.51336,0.29248 C12.59156,0.35488 12.67656,0.41248 12.74966,0.48128 C14.03231,1.68608 15.31411,2.89168 16.59421,4.09728 C16.86876,4.35568 16.87981,4.59088 16.63331,4.86688 C16.11821,5.44528 16.10801,6.06608 16.63926,6.62768 C16.84411,6.84368 16.82626,7.18848 16.60526,7.39488 C13.86231,9.96288 11.13041,12.54048 8.39511,15.11488 C8.11206,15.38128 7.89531,15.39248 7.59526,15.14368 C7.18046,14.80128 6.71466,14.66048 6.18511,14.85328 C6.00576,14.91808 5.84341,15.03648 5.69296,15.15248 C5.41161,15.37088 5.18721,15.37248 4.92796,15.12768 C3.62746,13.90528 2.32866,12.68128 1.02986,11.45808 C0.76636,11.21008 0.75786,11.00768 0.99416,10.73728 C1.43276,10.23728 1.49566,9.69808 1.17011,9.16048 C1.10891,9.05968 1.02136,8.97248 0.94486,8.87968 C0.78166,8.68128 0.78761,8.46688 0.96441,8.27968 C1.00181,8.23968 1.04346,8.20288 1.08341,8.16448 C3.79746,5.61008 6.51066,3.05648 9.22471,0.50368 C9.30546,0.42768 9.39641,0.36208 9.48141,0.29248 L9.88856,0.29248 C9.97271,0.36048 10.05516,0.43328 10.14356,0.49728 C10.51841,0.76768 10.93491,0.83168 11.38966,0.72368 C11.68886,0.65248 11.90051,0.45328 12.13766,0.29248 L12.51336,0.29248 Z" id="Fill-23"></path>
                    <path d="M10.993135,4.04992 C11.102785,4.10832 11.230285,4.14832 11.318685,4.22752 C11.755585,4.62592 12.183985,5.03232 12.611535,5.44032 C12.812135,5.63232 12.815535,5.89552 12.633635,6.07232 C12.447485,6.25232 12.157635,6.25392 11.950235,6.06192 C11.515885,5.66032 11.086635,5.25312 10.657385,4.84672 C10.508635,4.70512 10.465285,4.53552 10.545185,4.34832 C10.614885,4.18272 10.783185,4.08192 10.993135,4.04992" id="Fill-25"></path>
                    <path d="M5.689815,7.79096 C5.881915,7.89896 6.107165,7.97256 6.261015,8.11976 C7.028565,8.85896 7.782515,9.61336 8.533065,10.37096 C8.884115,10.72536 8.890065,11.21496 8.570465,11.54296 C8.244065,11.87736 7.734915,11.87896 7.371115,11.52296 C6.607815,10.77736 5.854715,10.02296 5.101615,9.26936 C4.838115,9.00616 4.762465,8.69256 4.901865,8.34376 C5.025115,8.03736 5.320915,7.85016 5.689815,7.79096" id="Fill-27"></path>
                </g>
            </g>
        </g>
    </g>
</svg>