<?xml version="1.0" encoding="UTF-8"?>
<svg width="24px" height="19px" viewBox="0 0 24 19" version="1.1" xmlns="http://www.w3.org/2000/svg" xmlns:xlink="http://www.w3.org/1999/xlink">
    <!-- Generator: Sketch 51.3 (57544) - http://www.bohemiancoding.com/sketch -->
    <title>Profile</title>
    <desc>Created with Sketch.</desc>
    <defs></defs>
    <g id="Page-1" stroke="none" stroke-width="1" fill="none" fill-rule="evenodd">
        <g id="Nav-Bar" transform="translate(-330.000000, -72.000000)" fill="#28397F">
            <g id="Nav" transform="translate(0.000000, 62.000000)">
                <path d="M337.520066,15.0403762 C337.487865,16.9431286 339.451152,18.5559681 341.891426,18.6045524 C344.352831,18.6523402 346.48417,17.0912709 346.494233,15.0507302 C346.50329,13.0993935 344.469561,11.4992974 342.000106,11.4992974 C339.535682,11.5000939 337.520066,13.0922253 337.520066,15.0403762 Z M330,26.4783951 C330.129812,26.0841454 330.231449,25.6827276 330.393463,25.2980355 C331.451082,22.7931564 333.450596,20.9158908 336.402069,19.6789823 C336.677795,19.563495 336.96459,19.4631405 337.251385,19.3651755 C337.53818,19.2680069 337.832019,19.1827852 338.140952,19.0864131 C336.311502,17.894903 335.430991,16.3744533 335.666465,14.502763 C335.838542,13.1320485 336.634524,11.9978838 337.99202,11.132924 C340.678836,9.41893352 344.484656,9.6801737 346.785054,11.7103603 C349.08847,13.7429364 348.995891,17.1956076 345.882404,19.076059 C346.360396,19.2385377 346.855494,19.3890694 347.330467,19.5706632 C349.295768,20.3233216 350.886725,21.4224419 352.112396,22.8528912 C352.432399,23.2256363 352.32875,23.685196 351.880948,23.9217458 C351.431132,24.159092 350.862574,24.061127 350.541565,23.6859925 C349.874389,22.9086436 349.067338,22.2372245 348.107329,21.6820891 C346.640147,20.8314656 345.004912,20.3057994 343.193575,20.1560642 C339.839584,19.8780983 336.970627,20.7111996 334.600795,22.5932439 C333.224179,23.6859925 332.351719,25.0121049 331.929074,26.5190148 C331.774104,27.0741501 332.214862,27.5034442 332.937384,27.5034442 L351.035657,27.5034442 C351.785349,27.5034442 352.191894,27.1306991 352.081201,26.5445016 C352.005729,26.1454732 352.353908,25.7536129 352.841962,25.6914887 C353.374294,25.6237893 353.855305,25.8858259 353.94889,26.2952084 C354.245748,27.5910553 353.222343,28.7491139 351.583083,28.9721238 C351.552894,28.9769025 351.524718,28.9912389 351.496542,29 L332.495619,29 C332.467443,28.9912389 332.440273,28.9761061 332.41109,28.9721238 C331.27498,28.8080522 330.523275,28.2879612 330.139875,27.4317625 C330.077485,27.2907883 330.04629,27.1402567 330,26.9953002 L330,26.4783951 Z" id="Profile"></path>
            </g>
        </g>
    </g>
</svg>